<svg height='100px' width='100px'  fill="#000000" xmlns="http://www.w3.org/2000/svg" xmlns:xlink="http://www.w3.org/1999/xlink" version="1.1" x="0px" y="0px" viewBox="0 0 91 91" enable-background="new 0 0 91 91" xml:space="preserve"><g><path d="M86.943,20.715C83.686,2.014,55.213,1.525,44.805,10.172c-5.496,4.563-9.906,10.238-10.803,17.412   c-1.197,9.504,6.141,16.785,16.023,16.061c4.234-0.309,7.301-2.109,9.137-5.57c1.828-3.434,1.828-7.166-0.506-10.012   c-2.998-3.656-6.877-5.752-9.857,0.646c-0.982,2.098-0.955,4.75-4.352,4.1c-0.998-0.189-1.85-1.625-2.373-2.674   c-1.35-2.699-0.1-5.018,2.289-6.779c5.861-4.318,11.752-3.625,17.115-0.164c5.859,3.779,6.227,9.406,3.348,15.254   c-3.162,6.432-9.076,10.736-16.297,10.855c-7.426,0.125-13.641-3.514-16.973-9.918c-3.873-7.432-4.197-15.199,0.484-22.928   c3.279-5.412,4.578-10.326-1.881-13.963c-6.777-3.809-12.467-1.498-17.154,4.043c-5.346,6.316-9.334,14.971-7.49,25.514   c2.557,14.596,8.039,21.408,17.566,32.506c8.871,10.336,16.811,16.691,21.699,25.73c5.568-18.434,24.244-22.83,34.785-39.791   C85.789,40.479,89.104,33.117,86.943,20.715z"></path></g></svg>