<svg version="1" xmlns="http://www.w3.org/2000/svg" width="3313.333" height="3313.333" viewBox="0 0 2485.000000 2485.000000"><path d="M604 14.6c-45.9 3.2-89.8 16.1-131.3 38.6-14.5 7.8-45.2 28.2-59.2 39.4-68.3 54.3-142.8 147.5-199.2 248.9-12.6 22.6-16.6 30.6-29.1 58-42.5 93.3-65.5 184.3-72.3 285.8-1.5 22.9-.6 89.8 1.5 112.7 3.3 35.3 5.9 53.8 12.7 91.4 30 164.8 77.4 304.2 145.9 428.6 64.8 117.6 144.4 225.2 307.4 415.5 71.8 83.7 138.5 157 243 267 64.6 67.9 73.1 76.8 95.7 101 127 135.9 205 235.9 262.1 335.9 6.6 11.6 12.7 22.2 13.5 23.5 1.5 2.4 1.9 1.4 11.3-25.5 12-34.3 20.2-55.3 32.1-81.7 53.2-118.4 136.5-228.6 257.4-340.6 41.9-38.9 89.4-79.2 187.5-159.4 107.3-87.8 128.6-105.7 168.5-141.1 96.2-85.5 162.9-155.4 224.2-234.6 28.7-37.2 52.8-72.6 85.4-125.6 107.7-175.3 162-297.4 187.3-421.4 22.2-109.4 23-217.1 2.6-347.5-7.5-47.8-16.9-83.1-32-120.9-6-15.1-20.5-44.4-29.7-59.8-35.7-60.4-87.5-113.8-151.8-156.6-52.6-34.9-119.5-65.1-185.5-83.6-60.7-17-110.5-25.8-183-32.3-28.2-2.6-124.2-2.5-154.5 0-151.7 12.7-281.3 52.4-377.4 115.4-59.7 39.1-148.5 124.8-202.7 195.3-78.5 102.3-123 210.4-134.3 326-6.5 66.9 4.4 137.5 30.4 196.1 13.7 30.9 33.7 63.4 53.2 86.3 16.8 19.9 43.3 45.1 61.8 59.2 68.1 51.6 151.5 79.6 244.5 82.1 92.1 2.4 168.5-18.8 224.8-62.4 11.5-8.9 35.9-33.4 45.1-45.3 15.4-19.8 33.4-50.6 42.6-73 8.6-21 15.6-44.6 19-64.5 5.3-30.5 4.2-67.9-2.6-95-11.7-46.2-32.8-79.9-77.5-123.6-15.9-15.4-27-24.7-39.4-32.9-45.8-30-87.5-32.8-124.2-8.3-9.2 6.1-28.4 24.6-35.9 34.4-21.9 28.8-35.3 55.3-53.5 105.9-11.8 32.9-21.8 49.3-35.8 58.7-13.8 9.3-28.7 12.4-49.3 10.4-21.7-2-29.3-5.3-42.4-18.1-21.3-21-43.9-62.7-51-94.5-.9-3.8-1.4-12.1-1.3-22.5.1-18.5 1.4-25.7 8.1-42.5 10.2-25.5 30-50.7 56.8-72.2 39.6-31.7 90.6-59.7 135.4-74.2 96.1-31.2 199.5-18.8 301.4 36.1 65.2 35.1 109.5 72.5 139.3 117.8 58 88.2 54.6 201-9.9 328.5-47.7 94.1-117.5 171.2-199.7 220.5-17.5 10.5-55 29.2-71.5 35.7-38.4 15-85.1 26.5-125.1 30.8-19.9 2.2-72.5 3.1-92.4 1.6-44.9-3.3-79.8-9.6-119.8-21.6-98.3-29.6-181.5-86.9-245.2-169-59.5-76.7-109.8-197.9-124.5-299.8-4.9-34.2-5.8-47.2-5.9-84.2-.1-22.2.4-40.1 1.2-49 6.8-71.2 25.4-138.2 56.7-204.6 10.4-22.1 21.1-42 40.5-74.9 13.6-23 34-61.9 40.5-77 33.5-77.9 37.2-138.8 12-191.6C888 131.8 852 96.9 799.8 66.9 751.4 39.1 704 22.8 653 16.4c-11.8-1.5-39.1-2.5-49-1.8z"/></svg>